<svg width="1166" height="516" viewBox="0 0 1166 516" fill="none" xmlns="http://www.w3.org/2000/svg">
<path d="M0 43C0 19.2517 19.2518 0 43 0H330C353.748 0 373 19.2518 373 43V473C373 496.748 353.748 516 330 516H43C19.2518 516 0 496.748 0 473V43Z" fill="#969696"/>
<path d="M400 28.8156C400 12.9012 419.252 5.62395e-05 443 5.62395e-05H730C753.748 5.62395e-05 773 12.9012 773 28.8156V487.184C773 503.099 753.748 516 730 516H443C419.252 516 400 503.099 400 487.184V28.8156Z" fill="#969696"/>
<path d="M793 28.8157C793 12.9013 812.252 0.000175109 836 0.000175109H1123C1146.75 0.000175109 1166 12.9013 1166 28.8157V487.184C1166 503.099 1146.75 516 1123 516H836C812.252 516 793 503.099 793 487.184V28.8157Z" fill="#969696"/>
</svg>
